<?xml version="1.0" encoding="UTF-8"?>
<svg width="512" height="512" viewBox="0 0 512 512" fill="none" xmlns="http://www.w3.org/2000/svg">
  <rect width="512" height="512" rx="128" fill="#4ECDC4"/>
  <path d="M256 149.333C209.067 149.333 170.667 187.733 170.667 234.667C170.667 281.6 209.067 320 256 320C302.933 320 341.333 281.6 341.333 234.667C341.333 187.733 302.933 149.333 256 149.333ZM256 298.667C220.533 298.667 192 270.133 192 234.667C192 199.2 220.533 170.667 256 170.667C291.467 170.667 320 199.2 320 234.667C320 270.133 291.467 298.667 256 298.667Z" fill="white"/>
  <path d="M256 192C232.533 192 213.333 211.2 213.333 234.667C213.333 258.133 232.533 277.333 256 277.333C279.467 277.333 298.667 258.133 298.667 234.667C298.667 211.2 279.467 192 256 192ZM256 256C244.267 256 234.667 246.4 234.667 234.667C234.667 222.933 244.267 213.333 256 213.333C267.733 213.333 277.333 222.933 277.333 234.667C277.333 246.4 267.733 256 256 256Z" fill="white"/>
  <path d="M384 320H341.333V341.333H384V362.667H128V341.333H170.667V320H128C116.267 320 106.667 329.6 106.667 341.333V362.667C106.667 374.4 116.267 384 128 384H384C395.733 384 405.333 374.4 405.333 362.667V341.333C405.333 329.6 395.733 320 384 320Z" fill="white"/>
</svg>
