<?xml version="1.0" encoding="UTF-8"?>
<svg width="512" height="512" viewBox="0 0 512 512" fill="none" xmlns="http://www.w3.org/2000/svg">
  <rect width="512" height="512" rx="128" fill="#4ECDC4"/>
  <path d="M256 149.333C209.067 149.333 170.667 187.733 170.667 234.667C170.667 281.6 209.067 320 256 320C302.933 320 341.333 281.6 341.333 234.667C341.333 187.733 302.933 149.333 256 149.333ZM256 298.667C220.8 298.667 192 269.867 192 234.667C192 199.467 220.8 170.667 256 170.667C291.2 170.667 320 199.467 320 234.667C320 269.867 291.2 298.667 256 298.667Z" fill="white"/>
  <path d="M256 192C232.8 192 213.333 211.467 213.333 234.667C213.333 257.867 232.8 277.333 256 277.333C279.2 277.333 298.667 257.867 298.667 234.667C298.667 211.467 279.2 192 256 192ZM256 256C244.8 256 234.667 245.867 234.667 234.667C234.667 223.467 244.8 213.333 256 213.333C267.2 213.333 277.333 223.467 277.333 234.667C277.333 245.867 267.2 256 256 256Z" fill="white"/>
  <path d="M384 320H341.333V341.333H384V362.667H128V341.333H170.667V320H128C116.8 320 106.667 330.133 106.667 341.333V362.667C106.667 373.867 116.8 384 128 384H384C395.2 384 405.333 373.867 405.333 362.667V341.333C405.333 330.133 395.2 320 384 320Z" fill="white"/>
</svg>
