<?xml version="1.0" encoding="UTF-8"?>
<svg width="192" height="192" viewBox="0 0 192 192" fill="none" xmlns="http://www.w3.org/2000/svg">
  <rect width="192" height="192" rx="48" fill="#4ECDC4"/>
  <path d="M96 56C78.3 56 64 70.3 64 88C64 105.7 78.3 120 96 120C113.7 120 128 105.7 128 88C128 70.3 113.7 56 96 56ZM96 112C82.7 112 72 101.3 72 88C72 74.7 82.7 64 96 64C109.3 64 120 74.7 120 88C120 101.3 109.3 112 96 112Z" fill="white"/>
  <path d="M96 72C87.2 72 80 79.2 80 88C80 96.8 87.2 104 96 104C104.8 104 112 96.8 112 88C112 79.2 104.8 72 96 72ZM96 96C91.6 96 88 92.4 88 88C88 83.6 91.6 80 96 80C100.4 80 104 83.6 104 88C104 92.4 100.4 96 96 96Z" fill="white"/>
  <path d="M144 120H128V128H144V136H48V128H64V120H48C43.6 120 40 123.6 40 128V136C40 140.4 43.6 144 48 144H144C148.4 144 152 140.4 152 136V128C152 123.6 148.4 120 144 120Z" fill="white"/>
</svg>
